<?xml version="1.0" encoding="UTF-8" standalone="no"?><!-- Generator: Gravit.io --><svg xmlns="http://www.w3.org/2000/svg" xmlns:xlink="http://www.w3.org/1999/xlink" style="isolation:isolate" viewBox="-307 89 962.225 431" width="962.225pt" height="431pt"><g><path d=" M 61.851 237.839 L 261.534 172.725 L 286.374 182.089 L 286.374 215.875 L 61.851 289.089 L 61.851 237.839 Z " fill="rgb(46,195,0)"/><path d=" M 22.993 138 L 174.112 89 L 174.112 140.25 L 22.993 189.25 L 22.993 138 Z " fill="rgb(59,253,0)"/><path d=" M 325.231 138 L 174.112 89 L 174.112 140.25 L 325.231 189.25 L 325.231 138 Z " fill="rgb(46,195,0)"/><path d=" M 61.851 237.839 L 286.374 237.839 L 286.374 289.089 L 61.851 289.089 L 61.851 237.839 Z " fill="rgb(59,253,0)"/><path d=" M 61.851 179.089 L 106.232 164.625 L 241.793 164.625 L 286.374 179.089 L 286.374 215.875 L 61.851 215.875 L 61.851 179.089 Z " fill="rgb(59,253,0)"/></g><path d=" M 293.949 348.88 L 330.701 348.88 L 330.701 389.92 L 330.701 389.92 Q 330.701 402.16 328.481 414.64 L 328.481 414.64 L 328.481 414.64 Q 353.887 395.2 378.307 395.2 L 378.307 395.2 L 378.307 395.2 Q 394.833 395.2 403.59 403.6 L 403.59 403.6 L 403.59 403.6 Q 412.346 412 412.346 428.08 L 412.346 428.08 L 412.346 516.88 L 376.087 516.88 L 376.087 439.12 L 376.087 439.12 Q 376.087 431.2 373.497 428.2 L 373.497 428.2 L 373.497 428.2 Q 370.907 425.2 364.247 425.2 L 364.247 425.2 L 364.247 425.2 Q 351.174 425.2 330.455 436 L 330.455 436 L 330.455 516.88 L 293.949 516.88 L 293.949 348.88 Z  M 514.299 398.56 L 550.558 398.56 L 550.558 516.88 L 521.699 516.88 L 518.986 500.56 L 518.986 500.56 Q 493.826 520 468.667 520 L 468.667 520 L 468.667 520 Q 434.381 520 434.381 487.12 L 434.381 487.12 L 434.381 398.56 L 470.887 398.56 L 470.887 476.32 L 470.887 476.32 Q 470.64 484 473.6 487.12 L 473.6 487.12 L 473.6 487.12 Q 476.56 490.24 483.96 490.24 L 483.96 490.24 L 483.96 490.24 Q 494.566 490.24 514.299 480.4 L 514.299 480.4 L 514.299 398.56 Z  M 655.225 422.32 L 621.432 422.32 L 621.432 478.24 L 621.432 478.24 Q 621.432 484.96 624.392 487.6 L 624.392 487.6 L 624.392 487.6 Q 627.352 490.24 634.752 490.24 L 634.752 490.24 L 650.292 490.24 L 654.238 514.96 L 654.238 514.96 Q 640.179 519.76 619.952 519.76 L 619.952 519.76 L 619.952 519.76 Q 603.426 519.76 594.3 510.76 L 594.3 510.76 L 594.3 510.76 Q 585.173 501.76 585.173 485.68 L 585.173 485.68 L 585.173 422.32 L 563.714 422.32 L 563.714 399.76 L 585.173 398.56 L 585.173 365.44 L 621.432 365.44 L 621.432 398.56 L 655.225 398.56 L 655.225 422.32 Z  M -211.049 500.08 L -211.049 500.08 L -208.829 513.76 L -208.829 513.76 Q -226.588 519.76 -250.021 519.76 L -250.021 519.76 L -250.021 519.76 Q -281.101 519.76 -294.05 505.96 L -294.05 505.96 L -294.05 505.96 Q -307 492.16 -307 458.32 L -307 458.32 L -307 458.32 Q -307 424.48 -294.05 410.8 L -294.05 410.8 L -294.05 410.8 Q -281.101 397.12 -249.775 397.12 L -249.775 397.12 L -249.775 397.12 Q -226.095 397.12 -211.049 402.64 L -211.049 402.64 L -213.762 415.84 L -213.762 415.84 Q -230.042 414.4 -246.321 414.4 L -246.321 414.4 L -246.321 414.4 Q -268.028 414.4 -276.414 423.76 L -276.414 423.76 L -276.414 423.76 Q -284.801 433.12 -284.801 458.32 L -284.801 458.32 L -284.801 458.32 Q -284.801 483.76 -276.414 493.12 L -276.414 493.12 L -276.414 493.12 Q -268.028 502.48 -246.321 502.48 L -246.321 502.48 L -246.321 502.48 Q -226.588 502.48 -211.049 500.08 Z  M -144.779 397.12 L -144.779 397.12 L -144.779 397.12 Q -113.7 397.12 -100.997 411.04 L -100.997 411.04 L -100.997 411.04 Q -88.294 424.96 -88.294 458.56 L -88.294 458.56 L -88.294 458.56 Q -88.294 492.16 -100.997 506.08 L -100.997 506.08 L -100.997 506.08 Q -113.7 520 -144.779 520 L -144.779 520 L -144.779 520 Q -175.612 520 -188.438 506.08 L -188.438 506.08 L -188.438 506.08 Q -201.265 492.16 -201.265 458.56 L -201.265 458.56 L -201.265 458.56 Q -201.265 424.96 -188.438 411.04 L -188.438 411.04 L -188.438 411.04 Q -175.612 397.12 -144.779 397.12 Z  M -117.523 423.76 L -117.523 423.76 L -117.523 423.76 Q -125.046 414.4 -144.779 414.4 L -144.779 414.4 L -144.779 414.4 Q -164.512 414.4 -171.912 423.76 L -171.912 423.76 L -171.912 423.76 Q -179.312 433.12 -179.312 458.56 L -179.312 458.56 L -179.312 458.56 Q -179.312 484 -171.912 493.36 L -171.912 493.36 L -171.912 493.36 Q -164.512 502.72 -144.779 502.72 L -144.779 502.72 L -144.779 502.72 Q -125.046 502.72 -117.523 493.36 L -117.523 493.36 L -117.523 493.36 Q -110 484 -110 458.56 L -110 458.56 L -110 458.56 Q -110 433.12 -117.523 423.76 Z  M 13.002 348.88 L 33.968 348.88 L 33.968 516.88 L 17.688 516.88 L 15.715 500.08 L 15.715 500.08 Q -7.225 519.76 -31.891 519.76 L -31.891 519.76 L -31.891 519.76 Q -54.09 519.76 -64.08 504.52 L -64.08 504.52 L -64.08 504.52 Q -74.07 489.28 -74.07 458.08 L -74.07 458.08 L -74.07 458.08 Q -74.07 424.72 -63.217 410.92 L -63.217 410.92 L -63.217 410.92 Q -52.364 397.12 -28.684 397.12 L -28.684 397.12 L -28.684 397.12 Q -5.251 397.12 13.988 407.92 L 13.988 407.92 L 13.988 407.92 Q 13.002 397.36 13.002 384.88 L 13.002 384.88 L 13.002 348.88 Z  M 13.002 485.92 L 13.002 485.92 L 13.002 421.36 L 13.002 421.36 Q -10.678 414.88 -23.751 414.88 L -23.751 414.88 L -23.751 414.88 Q -39.784 414.88 -46.197 423.76 L -46.197 423.76 L -46.197 423.76 Q -52.61 432.64 -52.61 457.84 L -52.61 457.84 L -52.61 457.84 Q -52.61 483.04 -46.32 492.52 L -46.32 492.52 L -46.32 492.52 Q -40.03 502 -24.984 502 L -24.984 502 L -24.984 502 Q -15.611 502 -7.965 498.52 L -7.965 498.52 L -7.965 498.52 Q -0.318 495.04 13.002 485.92 Z  M 131.81 468.4 L 131.81 468.4 L 75.818 468.4 L 75.818 468.4 Q 77.545 488.56 85.931 495.52 L 85.931 495.52 L 85.931 495.52 Q 94.318 502.48 113.804 502.48 L 113.804 502.48 L 113.804 502.48 Q 134.277 502.48 155.49 499.6 L 155.49 499.6 L 157.71 513.28 L 157.71 513.28 Q 141.677 519.76 111.091 519.76 L 111.091 519.76 L 111.091 519.76 Q 80.011 519.76 66.815 505.72 L 66.815 505.72 L 66.815 505.72 Q 53.619 491.68 53.619 458.08 L 53.619 458.08 L 53.619 458.08 Q 53.619 424.24 66.445 410.68 L 66.445 410.68 L 66.445 410.68 Q 79.271 397.12 108.871 397.12 L 108.871 397.12 L 108.871 397.12 Q 135.757 397.12 148.09 406.6 L 148.09 406.6 L 148.09 406.6 Q 160.423 416.08 160.423 435.28 L 160.423 435.28 L 160.423 435.28 Q 160.916 468.4 131.81 468.4 Z  M 75.571 452.56 L 75.571 452.56 L 126.384 452.56 L 126.384 452.56 Q 139.457 452.56 139.457 435.28 L 139.457 435.28 L 139.457 435.28 Q 139.21 424 132.55 419.2 L 132.55 419.2 L 132.55 419.2 Q 125.89 414.4 109.857 414.4 L 109.857 414.4 L 109.857 414.4 Q 90.864 414.4 83.465 422.44 L 83.465 422.44 L 83.465 422.44 Q 76.065 430.48 75.571 452.56 Z  M 251.112 468.4 L 251.112 468.4 L 195.12 468.4 L 195.12 468.4 Q 196.846 488.56 205.233 495.52 L 205.233 495.52 L 205.233 495.52 Q 213.619 502.48 233.106 502.48 L 233.106 502.48 L 233.106 502.48 Q 253.578 502.48 274.791 499.6 L 274.791 499.6 L 277.011 513.28 L 277.011 513.28 Q 260.978 519.76 230.392 519.76 L 230.392 519.76 L 230.392 519.76 Q 199.313 519.76 186.117 505.72 L 186.117 505.72 L 186.117 505.72 Q 172.92 491.68 172.92 458.08 L 172.92 458.08 L 172.92 458.08 Q 172.92 424.24 185.747 410.68 L 185.747 410.68 L 185.747 410.68 Q 198.573 397.12 228.172 397.12 L 228.172 397.12 L 228.172 397.12 Q 255.058 397.12 267.391 406.6 L 267.391 406.6 L 267.391 406.6 Q 279.725 416.08 279.725 435.28 L 279.725 435.28 L 279.725 435.28 Q 280.218 468.4 251.112 468.4 Z  M 194.873 452.56 L 194.873 452.56 L 245.685 452.56 L 245.685 452.56 Q 258.758 452.56 258.758 435.28 L 258.758 435.28 L 258.758 435.28 Q 258.512 424 251.852 419.2 L 251.852 419.2 L 251.852 419.2 Q 245.192 414.4 229.159 414.4 L 229.159 414.4 L 229.159 414.4 Q 210.166 414.4 202.766 422.44 L 202.766 422.44 L 202.766 422.44 Q 195.366 430.48 194.873 452.56 Z " fill="rgb(59,253,0)"/></svg>