<svg width="0" height="0" class="hidden">
  <symbol id="icon-image-placeholder" enable-background="new 0 0 66 66" viewBox="0 0 66 66"
          xmlns="http://www.w3.org/2000/svg">
    <g>
      <path
        d="m62 23.22h-5.68l-19.96-20.6s-2.87-2.98-6.66-.05l-20.02 20.65h-5.68c-.41 0-.75.34-.75.75v40c0 .41.34.75.75.75h58c.41 0 .75-.34.75-.75v-40c0-.41-.34-.75-.75-.75zm-25.75-17.25c0 1.79-1.46 3.25-3.25 3.25s-3.25-1.46-3.25-3.25c0-2.8 2.43-3.25 3.25-3.25 1.24 0 3.25.69 3.25 3.25zm-7.98.22c.11 2.52 2.18 4.54 4.73 4.54s4.61-2.02 4.73-4.54l16.5 17.04h-42.46zm32.98 57.03h-56.5v-38.5h56.5z"/>
      <path
        d="m10 29.22c-.41 0-.75.34-.75.75v28c0 .41.34.75.75.75h46c.41 0 .75-.34.75-.75v-28c0-.41-.34-.75-.75-.75zm1.5 28 14.53-19.4c.12-.17.26-.17.38 0l7.96 10.63c.67.89 2.12.89 2.78 0l3.2-4.28c.12-.17.26-.17.38 0l9.77 13.04h-39zm43.75 0h-2.87l-10.44-13.94c-.33-.45-.84-.7-1.39-.7-.55 0-1.06.26-1.39.7l-3.2 4.28c-.13.17-.26.17-.38 0l-7.96-10.63c-.67-.89-2.12-.89-2.78 0l-14.07 18.8v-25h44.5v26.49z"/>
      <path d="m33 4.97c-.55 0-1 .45-1 1s.45 1 1 1 1-.45 1-1-.45-1-1-1z"/>
      <path
        d="m24.13 44.52-5.25 7.02c-.25.33-.18.8.15 1.05.13.1.29.15.45.15.23 0 .45-.1.6-.3l5.25-7.02c.25-.33.18-.8-.15-1.05-.33-.24-.8-.18-1.05.15z"/>
      <path
        d="m48 42.72c2.62 0 4.75-2.13 4.75-4.75s-2.13-4.75-4.75-4.75-4.75 2.13-4.75 4.75 2.13 4.75 4.75 4.75zm0-8c1.79 0 3.25 1.46 3.25 3.25s-1.46 3.25-3.25 3.25-3.25-1.46-3.25-3.25 1.46-3.25 3.25-3.25z"/>
    </g>
  </symbol>
  <symbol id="icon-edit-link" xmlns="http://www.w3.org/2000/svg" viewBox="0 0 50 50">
    <g id="Icons">
      <path
        d="m43.4 6.6a5.44 5.44 0 0 0 -7.71 0l-19.57 19.62a1 1 0 0 0 -.28.59l-.84 7.07a1 1 0 0 0 .28.82 1 1 0 0 0 .72.3h.11l7.13-.74a1 1 0 0 0 .6-.29l19.56-19.63a5.49 5.49 0 0 0 0-7.74zm-20.72 25.69-5.54.59.64-5.49 15.46-15.5 4.89 4.9zm16.86-16.91-4.89-4.91 2.45-2.47a3.53 3.53 0 0 1 4.9 0 3.47 3.47 0 0 1 0 4.9z"/>
      <path
        d="m39 38a5 5 0 0 1 -5 5h-22a5 5 0 0 1 -5-5v-22a5 5 0 0 1 5-5h15v-2h-15a7 7 0 0 0 -7 7v22a7 7 0 0 0 7 7h22a7 7 0 0 0 7-7v-15h-2z"/>
    </g>
  </symbol>
  <symbol id="icon-delete-link" height="20" viewBox="0 0 128 128" width="20" xmlns="http://www.w3.org/2000/svg">
    <g>
      <path
        d="m95.331 27.471h-14.248v-4.516a5.712 5.712 0 0 0 -5.7-5.7h-22.762a5.712 5.712 0 0 0 -5.705 5.7v4.516h-14.248a5.425 5.425 0 0 0 -5.419 5.419v5.857a5.426 5.426 0 0 0 5.419 5.419h.071v59.041a7.551 7.551 0 0 0 7.542 7.543h47.437a7.551 7.551 0 0 0 7.542-7.543v-59.041h.071a5.425 5.425 0 0 0 5.418-5.419v-5.857a5.424 5.424 0 0 0 -5.418-5.419zm-44.915-4.516a2.207 2.207 0 0 1 2.205-2.2h22.757a2.207 2.207 0 0 1 2.2 2.2v4.516h-27.162zm41.344 80.252a4.047 4.047 0 0 1 -4.042 4.043h-47.437a4.047 4.047 0 0 1 -4.042-4.043v-59.041h55.521zm5.489-64.46a1.92 1.92 0 0 1 -1.918 1.919h-62.663a1.921 1.921 0 0 1 -1.919-1.919v-5.857a1.921 1.921 0 0 1 1.919-1.919h62.663a1.92 1.92 0 0 1 1.918 1.919z"/>
      <path
        d="m64 95.541a1.749 1.749 0 0 0 1.75-1.75v-36.166a1.75 1.75 0 1 0 -3.5 0v36.166a1.75 1.75 0 0 0 1.75 1.75z"/>
      <path
        d="m79.333 95.541a1.75 1.75 0 0 0 1.75-1.75v-36.166a1.75 1.75 0 0 0 -3.5 0v36.166a1.75 1.75 0 0 0 1.75 1.75z"/>
      <path
        d="m48.666 95.541a1.75 1.75 0 0 0 1.75-1.75v-36.166a1.75 1.75 0 0 0 -3.5 0v36.166a1.75 1.75 0 0 0 1.75 1.75z"/>
    </g>
  </symbol>

  <symbol id="icon-qr-code" viewBox="0 0 24 24" xmlns="http://www.w3.org/2000/svg">
    <path
      d="m16.1667 6c-.0921 0-.1667.07462-.1667.16667v1.66666c0 .09205.0746.16667.1667.16667h1.6666c.0921 0 .1667-.07462.1667-.16667v-1.66666c0-.09205-.0746-.16667-.1667-.16667zm-.1667 12v-.5c0-.2761.2239-.5.5-.5s.5.2239.5.5v.5h1v-.5c0-.2761.2239-.5.5-.5s.5.2239.5.5v1c0 .2761-.2239.5-.5.5h-4c-.2761 0-.5-.2239-.5-.5v-1c0-.2761.2239-.5.5-.5s.5.2239.5.5v.5zm-3-7h.5c.2761 0 .5.2239.5.5s-.2239.5-.5.5h-2c-.2761 0-.5-.2239-.5-.5s.2239-.5.5-.5h.5v-1h-1.5c-.2761 0-.5-.22386-.5-.5s.2239-.5.5-.5h3c.2761 0 .5.22386.5.5s-.2239.5-.5.5h-.5zm5 1h-.5c-.2761 0-.5-.2239-.5-.5s.2239-.5.5-.5h.5v-.5c0-.2761.2239-.5.5-.5s.5.2239.5.5v2c0 .2761-.2239.5-.5.5s-.5-.2239-.5-.5zm-5 2h-.5c-.2761 0-.5-.2239-.5-.5s.2239-.5.5-.5h1c.2761 0 .5.2239.5.5v2c0 .2761-.2239.5-.5.5h-3c-.2761 0-.5-.2239-.5-.5s.2239-.5.5-.5h2.5zm3.1667-9h1.6666c.6444 0 1.1667.52233 1.1667 1.16667v1.66666c0 .64434-.5223 1.16667-1.1667 1.16667h-1.6666c-.6444 0-1.1667-.52233-1.1667-1.16667v-1.66666c0-.64434.5223-1.16667 1.1667-1.16667zm-10.00003 0h1.66666c.64434 0 1.16667.52233 1.16667 1.16667v1.66666c0 .64434-.52233 1.16667-1.16667 1.16667h-1.66666c-.64434 0-1.16667-.52233-1.16667-1.16667v-1.66666c0-.64434.52233-1.16667 1.16667-1.16667zm0 1c-.09205 0-.16667.07462-.16667.16667v1.66666c0 .09205.07462.16667.16667.16667h1.66666c.09205 0 .16667-.07462.16667-.16667v-1.66666c0-.09205-.07462-.16667-.16667-.16667zm0 9h1.66666c.64434 0 1.16667.5223 1.16667 1.1667v1.6666c0 .6444-.52233 1.1667-1.16667 1.1667h-1.66666c-.64434 0-1.16667-.5223-1.16667-1.1667v-1.6666c0-.6444.52233-1.1667 1.16667-1.1667zm0 1c-.09205 0-.16667.0746-.16667.1667v1.6666c0 .0921.07462.1667.16667.1667h1.66666c.09205 0 .16667-.0746.16667-.1667v-1.6666c0-.0921-.07462-.1667-.16667-.1667zm6.83333-10h-2.5c-.2761 0-.5-.22386-.5-.5s.2239-.5.5-.5h3c.2761 0 .5.22386.5.5v2c0 .27614-.2239.5-.5.5s-.5-.22386-.5-.5zm-2.5 2c-.2761 0-.5-.22386-.5-.5s.2239-.5.5-.5h1c.2761 0 .5.22386.5.5s-.2239.5-.5.5zm-5 6c-.27614 0-.5-.2239-.5-.5s.22386-.5.5-.5h2c.27614 0 .5.2239.5.5s-.22386.5-.5.5zm4 0c-.27614 0-.5-.2239-.5-.5s.22386-.5.5-.5h1c.2761 0 .5.2239.5.5s-.2239.5-.5.5zm1.5 4v.5c0 .2761-.2239.5-.5.5s-.5-.2239-.5-.5v-1c0-.2761.2239-.5.5-.5h2c.2761 0 .5.2239.5.5s-.2239.5-.5.5zm-2-7h.5c.27614 0 .5.2239.5.5s-.22386.5-.5.5h-1c-.27614 0-.5-.2239-.5-.5v-.5h-.5c-.27614 0-.5-.2239-.5-.5s.22386-.5.5-.5h1c.27614 0 .5.2239.5.5zm-4-.5c0-.2761.22386-.5.5-.5s.5.2239.5.5v1c0 .2761-.22386.5-.5.5s-.5-.2239-.5-.5zm10 0c0-.2761.2239-.5.5-.5s.5.2239.5.5v2c0 .2761-.2239.5-.5.5s-.5-.2239-.5-.5zm2 4.5v-.5c0-.2761.2239-.5.5-.5h1c.2761 0 .5.2239.5.5s-.2239.5-.5.5h-.5v.5c0 .2761-.2239.5-.5.5h-2c-.2761 0-.5-.2239-.5-.5v-1c0-.2761.2239-.5.5-.5s.5.2239.5.5v.5zm-14-8.5c0 .27614-.22386.5-.5.5s-.5-.22386-.5-.5v-2c0-1.38071 1.11929-2.5 2.5-2.5h2c.27614 0 .5.22386.5.5s-.22386.5-.5.5h-2c-.82843 0-1.5.67157-1.5 1.5zm14.5-3.5c-.2761 0-.5-.22386-.5-.5s.2239-.5.5-.5h2c1.3807 0 2.5 1.11929 2.5 2.5v2c0 .27614-.2239.5-.5.5s-.5-.22386-.5-.5v-2c0-.82843-.6716-1.5-1.5-1.5zm-11 18c.27614 0 .5.2239.5.5s-.22386.5-.5.5h-2c-1.38071 0-2.5-1.1193-2.5-2.5v-2c0-.2761.22386-.5.5-.5s.5.2239.5.5v2c0 .8284.67157 1.5 1.5 1.5zm14.5-3.5c0-.2761.2239-.5.5-.5s.5.2239.5.5v2c0 1.3807-1.1193 2.5-2.5 2.5h-2c-.2761 0-.5-.2239-.5-.5s.2239-.5.5-.5h2c.8284 0 1.5-.6716 1.5-1.5z"
      fill="rgb(0,0,0)"/>
  </symbol>
</svg>
